<svg xmlns="http://www.w3.org/2000/svg" viewBox="0 0 56.39 51.95"><defs><style>.cls-1{fill:#e7127a;}</style></defs><g id="Capa_2" data-name="Capa 2"><g id="Capa_1-2" data-name="Capa 1"><path class="cls-1" d="M56.21,15.26a18.27,18.27,0,0,0-2.32-7.74,12.53,12.53,0,0,0-3.17-3.61C46.51.72,40.57,0,35.45,0H29.36A28.06,28.06,0,0,0,13.23,4.46a23.2,23.2,0,0,0-3.4,2.46,27.67,27.67,0,0,0-7.9,12.25A44.67,44.67,0,0,0,.18,36.69,18.13,18.13,0,0,0,2.5,44.43,12.53,12.53,0,0,0,5.67,48C9.88,51.23,15.82,52,20.94,52H27a28.08,28.08,0,0,0,16.13-4.46A23.74,23.74,0,0,0,46.56,45a27.75,27.75,0,0,0,7.9-12.25A44.67,44.67,0,0,0,56.21,15.26ZM38.4,29.61a14,14,0,0,1-5.1,4.54,6.11,6.11,0,0,0-1.46.92,1.55,1.55,0,0,0-.46,1.57,1.88,1.88,0,0,0,2,.89c1.06-.11,2.14-.55,3.12.27a2.61,2.61,0,0,1,.61,3c-.71,1.76-2.52,2.55-4.21,3.2-3.94,1.52-8.06,2.88-12.29,2.81C16,46.69,11.07,44.59,9,40.26a5.11,5.11,0,0,1-.39-3.71c.85-2.74,3.63-3,5.94-3.82a12.82,12.82,0,0,0,6-4.4,4.41,4.41,0,0,0,1-2,1.94,1.94,0,0,0-.82-1.95,3,3,0,0,0-2-.13l-5.07.85a3.9,3.9,0,0,1-4.52-4.5c1-5.62,3.83-10.37,8.94-13l.11,0c1.62-.46,2.76-.89,4.38-1.34a9.56,9.56,0,0,1,3.77-.53,3.28,3.28,0,0,1,2.86,2.19c.46,1.8-1.2,3.43-2.85,4.28s-3.59,1.51-4.49,3.14a4.28,4.28,0,0,0-.07,3.7,6.51,6.51,0,0,0,2.53,2.8c2.78,1.77,6.29,1.85,9.59,1.67a11.27,11.27,0,0,1,3,.07,3.51,3.51,0,0,1,2.39,1.6C40,26.57,39.3,28.31,38.4,29.61Zm9.91-8.8a2.78,2.78,0,0,1-3.08,1.59c-1.54-.49-1.95-2.51-3.23-3.49a5.13,5.13,0,0,0-3.41-.72,8.2,8.2,0,0,1-3.53-.28,2.35,2.35,0,0,1-1.51-2.82,4.17,4.17,0,0,1,1.5-1.51,2.17,2.17,0,0,0,1.07-1.76c-.1-1.17-1.61-1.53-2.46-2.34a2.51,2.51,0,0,1-.21-3.28c1.64-2,7.15-.68,9.15,0a9,9,0,0,1,4.8,3.32c1.47,2.2,1.51,5,1.5,7.66A8,8,0,0,1,48.31,20.81Z"/></g></g></svg>