<svg width="189" height="31" viewBox="0 0 189 31" fill="none" xmlns="http://www.w3.org/2000/svg">
<path d="M31.0343 1.38692C28.4126 0.899767 25.7014 1.10242 23.1912 1.97317C20.6811 2.84391 18.4667 4.3499 16.7854 6.32971C15.2512 6.18103 13.7081 6.51584 12.3923 7.28294C11.0764 8.05004 10.0602 9.2072 9.49902 10.5774C12.0284 11.1057 14.3713 12.2498 16.2996 13.8984C18.4555 15.7572 20.0018 18.1711 20.7524 20.8492C21.9291 20.6185 23.0049 20.053 23.8379 19.2273C25.7584 17.2879 25.4211 14.7136 25.3671 14.3617C27.2787 12.9843 28.8075 11.1812 29.8199 9.11003C30.9834 6.69738 31.4046 4.01905 31.0343 1.38692ZM23.6444 9.9939C23.1997 9.9939 22.7649 9.86808 22.395 9.63235C22.0252 9.39662 21.737 9.06157 21.5668 8.66956C21.3965 8.27756 21.352 7.84621 21.4388 7.43006C21.5256 7.01391 21.7397 6.63165 22.0543 6.33163C22.3688 6.0316 22.7695 5.82728 23.2057 5.7445C23.642 5.66172 24.0941 5.70421 24.5051 5.86658C24.916 6.02895 25.2672 6.30392 25.5143 6.65672C25.7614 7.00951 25.8933 7.42429 25.8933 7.84859C25.8933 8.13031 25.8352 8.40928 25.7221 8.66956C25.6091 8.92984 25.4435 9.16634 25.2346 9.36555C25.0258 9.56476 24.7779 9.72278 24.5051 9.8306C24.2322 9.93841 23.9398 9.9939 23.6444 9.9939Z" fill="white"/>
<path d="M15.7421 0.12549C11.5671 0.12549 7.56299 1.70765 4.61076 4.52391C1.65854 7.34018 4.48048e-07 11.1599 4.48048e-07 15.1427C-0.000681384 17.8642 0.77685 20.5344 2.24888 22.8658L4.89355 20.3472L12.2564 13.3234C11.5996 12.6988 10.71 12.3481 9.78261 12.3481C8.8552 12.3481 7.96562 12.6988 7.30885 13.3234L3.73313 16.7559C3.64931 16.2218 3.60422 15.6827 3.5982 15.1427C3.5982 12.0702 4.87765 9.1236 7.15508 6.95106C9.4325 4.77851 12.5214 3.55798 15.7421 3.55798C16.066 3.55798 16.3898 3.55798 16.7091 3.5966C17.9032 2.51464 19.2582 1.60669 20.7301 0.902092C19.1226 0.387097 17.4379 0.124809 15.7421 0.12549Z" fill="white"/>
<path d="M31.448 15.1427C31.448 19.1255 29.7895 22.9452 26.8373 25.7614C23.8851 28.5777 19.881 30.1598 15.7059 30.1598C14.2547 30.1619 12.8103 29.9698 11.4151 29.5892C10.1952 29.2593 9.02285 28.7866 7.9248 28.1819L10.5875 25.6418L17.469 19.06C18.1238 19.6865 18.4915 20.5352 18.4915 21.4199C18.4915 22.3046 18.1238 23.1532 17.469 23.7797L14.4915 26.6201C14.8963 26.6587 15.3101 26.6802 15.7239 26.6802C18.9447 26.6802 22.0335 25.4596 24.311 23.2871C26.5884 21.1145 27.8678 18.1679 27.8678 15.0955C27.8678 15.0183 27.8678 14.941 27.8678 14.8638C29.0612 13.8171 30.0884 12.6102 30.9173 11.2811C31.27 12.5407 31.4484 13.8389 31.448 15.1427Z" fill="white"/>
<path d="M14.1709 15.1544L16.1714 17.0627C16.2346 17.1231 16.2702 17.2049 16.2702 17.2903C16.2702 17.3756 16.2346 17.4575 16.1714 17.5178L4.08589 29.0467C3.75693 29.3606 3.31076 29.5369 2.84554 29.5369C2.38032 29.5369 1.93415 29.3606 1.60518 29.0467C1.27622 28.7329 1.09142 28.3073 1.09142 27.8635C1.09142 27.4197 1.27622 26.9941 1.60519 26.6803L13.6907 15.1514C13.7539 15.091 13.8397 15.0571 13.9292 15.0571C14.0187 15.0571 14.1045 15.091 14.1677 15.1514L14.1709 15.1544Z" fill="white"/>
<path d="M43.4618 7.1106H50.4378C54.5488 7.1106 57.1845 9.12719 57.1845 12.564V12.6069C57.1845 16.2668 54.2339 18.1847 50.1905 18.1847H47.9416V22.6298H43.4438L43.4618 7.1106ZM50.1095 14.8337C51.7152 14.8337 52.6912 14.0357 52.6912 12.8171V12.7742C52.6912 11.4398 51.7152 10.7319 50.087 10.7319H47.9731V14.8337H50.1095Z" fill="white"/>
<path d="M58.8486 6.44556H63.2653V12.2765C63.6854 11.6957 64.2451 11.2193 64.8977 10.8871C65.5503 10.5549 66.2768 10.3766 67.0165 10.3672C69.6881 10.3672 71.2938 12.0534 71.2938 14.7822V22.6298H66.877V16.1338C66.877 14.8251 66.1529 14.1172 65.1094 14.1172C64.0659 14.1172 63.2474 14.8251 63.2474 16.1338V22.6298H58.8306L58.8486 6.44556Z" fill="white"/>
<path d="M73.0752 16.6873V16.6444C73.0752 13.2119 76.0077 10.3672 80.0512 10.3672C84.0947 10.3672 86.9777 13.1861 86.9777 16.6015V16.6444C86.9777 20.0769 84.0497 22.9215 80.0017 22.9215C75.9538 22.9215 73.0752 20.1026 73.0752 16.6873ZM82.6779 16.6873V16.6444C82.6923 16.2981 82.6342 15.9525 82.5068 15.6279C82.3795 15.3034 82.1855 15.0063 81.9362 14.7542C81.687 14.502 81.3875 14.2999 81.0553 14.1595C80.7232 14.0192 80.365 13.9436 80.0017 13.937C78.4005 13.937 77.375 15.1598 77.375 16.6015V16.6444C77.3606 16.9914 77.4191 17.3376 77.547 17.6627C77.6749 17.9879 77.8697 18.2853 78.1198 18.5376C78.37 18.7898 78.6706 18.9918 79.0038 19.1316C79.337 19.2715 79.6962 19.3463 80.0602 19.3517C81.6524 19.3517 82.6779 18.1461 82.6779 16.6873Z" fill="white"/>
<path d="M89.5054 18.9055V14.0271H88.0166V10.6332H89.5054V7.59546H93.9222V10.6332H96.8502V14.0271H93.9222V18.086C93.9222 18.9441 94.318 19.2831 95.132 19.2831C95.7141 19.2719 96.2861 19.1355 96.8052 18.8841V22.1879C95.8602 22.661 94.8047 22.8972 93.7377 22.8744C91.0706 22.8658 89.5054 21.7674 89.5054 18.9055Z" fill="white"/>
<path d="M97.8799 16.6873V16.6444C97.8799 13.2119 100.808 10.3672 104.851 10.3672C108.895 10.3672 111.778 13.1861 111.778 16.6015V16.6444C111.778 20.0769 108.85 22.9215 104.806 22.9215C100.763 22.9215 97.8799 20.1026 97.8799 16.6873ZM107.478 16.6873V16.6444C107.493 16.2976 107.435 15.9514 107.308 15.6263C107.18 15.3012 106.986 15.0037 106.736 14.7514C106.486 14.4991 106.186 14.297 105.853 14.1571C105.52 14.0173 105.161 13.9424 104.797 13.937C103.192 13.937 102.171 15.1598 102.171 16.6015V16.6444C102.156 16.9904 102.213 17.3359 102.34 17.6604C102.467 17.985 102.661 18.2821 102.909 18.5343C103.158 18.7865 103.457 18.9887 103.789 19.1291C104.121 19.2695 104.479 19.3452 104.842 19.3517C106.457 19.3517 107.496 18.1461 107.496 16.6873H107.478Z" fill="white"/>
<path d="M113.896 7.1106H118.394V13.4264L123.998 7.13205H129.355L123.193 13.7825L129.562 22.6298H124.138L120.054 16.8589L118.403 18.6095V22.6212H113.905L113.896 7.1106Z" fill="white"/>
<path d="M129.283 16.6873V16.6444C129.283 13.1389 131.91 10.3672 135.63 10.3672C139.974 10.3672 141.976 13.4049 141.976 16.9318C141.976 17.1978 141.976 17.5111 141.953 17.79H133.538C133.664 18.3776 134.009 18.9015 134.51 19.2646C135.01 19.6276 135.632 19.8049 136.259 19.7636C137.303 19.7636 138.139 19.3861 139.048 18.5408L141.486 20.4716C140.845 21.2642 140.016 21.8994 139.066 22.3241C138.116 22.7488 137.074 22.9507 136.025 22.913C132.072 22.9215 129.283 20.4158 129.283 16.6873ZM137.829 15.6446C137.667 14.3146 136.853 13.4736 135.643 13.4736C134.433 13.4736 133.691 14.3317 133.457 15.6446H137.829Z" fill="white"/>
<path d="M143.86 10.6332H148.277V12.2293C149.136 11.2339 150.207 10.3672 152.087 10.3672C155.087 10.3672 157.668 12.7399 157.668 16.5757V16.6229C157.668 20.5231 155.087 22.8958 152.109 22.8958C151.374 22.9146 150.645 22.7691 149.98 22.4711C149.314 22.1731 148.731 21.7308 148.277 21.1795V26.1781H143.86V10.6332ZM153.306 16.6401V16.5972C153.306 15.0225 152.168 13.8898 150.724 13.8898C149.28 13.8898 148.169 15.0225 148.169 16.5972V16.6401C148.169 18.2362 149.307 19.3689 150.724 19.3689C152.141 19.3689 153.319 18.2619 153.319 16.6444L153.306 16.6401Z" fill="white"/>
<path d="M159.67 6.44556H164.087V22.6298H159.67V6.44556Z" fill="white"/>
<path d="M166.035 16.6873V16.6444C166.035 13.1389 168.661 10.3672 172.381 10.3672C176.726 10.3672 178.727 13.4049 178.727 16.9318C178.727 17.1978 178.727 17.5111 178.705 17.79H170.29C170.415 18.3737 170.757 18.8946 171.253 19.2572C171.749 19.6197 172.365 19.7995 172.988 19.7636C173.517 19.7568 174.039 19.6445 174.52 19.4339C175.001 19.2233 175.431 18.9191 175.781 18.5408L178.219 20.4716C177.579 21.2642 176.749 21.8994 175.799 22.3241C174.85 22.7488 173.807 22.9507 172.759 22.913C168.823 22.9215 166.035 20.4158 166.035 16.6873ZM174.58 15.6446C174.418 14.3146 173.604 13.4736 172.394 13.4736C171.185 13.4736 170.442 14.3317 170.209 15.6446H174.58Z" fill="white"/>
<path d="M180.607 10.6332H185.024V13.0531C185.748 11.4098 186.909 10.3457 189 10.4359V14.8723H188.627C186.329 14.8723 185.029 16.1338 185.029 18.9055V22.6298H180.612L180.607 10.6332Z" fill="white"/>
</svg>
