<svg xmlns="http://www.w3.org/2000/svg" viewBox="0 0 420.21 69.92"><defs><style>.cls-1{fill:#e71b80;}.cls-2{fill:#fff;}.cls-3{fill:#e71e80;}</style></defs><g id="Capa_2" data-name="Capa 2"><g id="Capa_1-2" data-name="Capa 1"><path class="cls-1" d="M69,2.94A32.72,32.72,0,0,0,37.32,14.46a15.69,15.69,0,0,0-16.2,9.9A33.34,33.34,0,0,1,36.24,32.1a33.5,33.5,0,0,1,9.9,16.2A13.21,13.21,0,0,0,53,44.52C57.27,40,56.52,34,56.4,33.18a32.61,32.61,0,0,0,9.9-12.24A32.67,32.67,0,0,0,69,2.94ZM52.57,23a5,5,0,1,1,5-5A5,5,0,0,1,52.57,23Z"/><path class="cls-1" d="M35,0A35,35,0,0,0,0,35,34.87,34.87,0,0,0,5,53l5.88-5.87L27.25,30.76h0a7.79,7.79,0,0,0-11,0l-7.95,8A27.36,27.36,0,0,1,8,35,27,27,0,0,1,35,8c.72,0,1.44,0,2.15.09a37.22,37.22,0,0,1,8.94-6.28A34.79,34.79,0,0,0,35,0Z"/><path class="cls-1" d="M69.92,35a35,35,0,0,1-35,35,34.51,34.51,0,0,1-9.54-1.33,34.14,34.14,0,0,1-7.76-3.28l5.92-5.92L38.84,44.13a7.79,7.79,0,0,1,0,11l-6.62,6.62c.9.09,1.82.14,2.74.14a27,27,0,0,0,27-27c0-.18,0-.36,0-.54A37.14,37.14,0,0,0,68.74,26,34.84,34.84,0,0,1,69.92,35Z"/><path class="cls-1" d="M15.51,31H21.8a.75.75,0,0,1,.75.75v38a3.9,3.9,0,0,1-3.9,3.9h0a3.9,3.9,0,0,1-3.9-3.9v-38a.75.75,0,0,1,.75-.75Z" transform="translate(42.46 2.14) rotate(45)"/><path class="cls-2" d="M96.63,16.28h15.51c9.14,0,15,4.7,15,12.71v.1c0,8.53-6.56,13-15.55,13h-5V52.45h-10Zm14.78,18c3.57,0,5.74-1.86,5.74-4.7v-.1c0-3.11-2.17-4.76-5.79-4.76h-4.7v9.56Z"/><path class="cls-2" d="M130.84,14.73h9.82V28.32A10.3,10.3,0,0,1,149,23.87c5.94,0,9.51,3.93,9.51,10.29V52.45h-9.82V37.31c0-3.05-1.61-4.7-3.93-4.7s-4.14,1.65-4.14,4.7V52.45h-9.82Z"/><path class="cls-2" d="M162.47,38.6v-.1c0-8,6.52-14.63,15.51-14.63s15.4,6.57,15.4,14.53v.1c0,8-6.51,14.63-15.51,14.63S162.47,46.56,162.47,38.6Zm21.35,0v-.1a6.07,6.07,0,0,0-5.95-6.31c-3.56,0-5.84,2.85-5.84,6.21v.1A6.07,6.07,0,0,0,178,44.81C181.54,44.81,183.82,42,183.82,38.6Z"/><path class="cls-2" d="M199,43.77V32.4h-3.31V24.49H199V17.41h9.82v7.08h6.51V32.4h-6.51v9.46c0,2,.88,2.79,2.69,2.79a8.6,8.6,0,0,0,3.72-.93v7.7a14,14,0,0,1-6.82,1.6C202.48,53,199,50.44,199,43.77Z"/><path class="cls-2" d="M217.62,38.6v-.1c0-8,6.51-14.63,15.5-14.63s15.4,6.57,15.4,14.53v.1c0,8-6.51,14.63-15.5,14.63S217.62,46.56,217.62,38.6Zm21.34,0v-.1A6.06,6.06,0,0,0,233,32.19c-3.57,0-5.84,2.85-5.84,6.21v.1a6.06,6.06,0,0,0,5.94,6.31C236.69,44.81,239,42,239,38.6Z"/><path class="cls-3" d="M253.23,16.28h10V31l12.46-14.67H287.6L273.9,31.83l14.16,20.62H276L266.92,39l-3.67,4.08v9.35h-10Z"/><path class="cls-2" d="M287.44,38.6v-.1c0-8.17,5.84-14.63,14.11-14.63,9.66,0,14.11,7.08,14.11,15.3,0,.62,0,1.35-.05,2H296.9a5.77,5.77,0,0,0,6.05,4.6c2.32,0,4.18-.88,6.2-2.85l5.42,4.5a14.63,14.63,0,0,1-12.14,5.69C293.64,53.13,287.44,47.29,287.44,38.6Zm19-2.43c-.36-3.1-2.17-5.06-4.86-5.06s-4.34,2-4.86,5.06Z"/><path class="cls-2" d="M319.85,24.49h9.82v3.72c1.91-2.32,4.29-4.34,8.47-4.34,6.67,0,12.41,5.53,12.41,14.47v.11c0,9.09-5.74,14.62-12.36,14.62a10.48,10.48,0,0,1-8.52-4V60.72h-9.82Zm21,14v-.1c0-3.67-2.53-6.31-5.74-6.31s-5.68,2.64-5.68,6.31v.1c0,3.72,2.53,6.36,5.68,6.36S340.88,42.27,340.88,38.5Z"/><path class="cls-2" d="M355,14.73h9.82V52.45H355Z"/><path class="cls-2" d="M369.15,38.6v-.1c0-8.17,5.84-14.63,14.11-14.63,9.66,0,14.11,7.08,14.11,15.3,0,.62,0,1.35-.05,2H378.61a5.77,5.77,0,0,0,6,4.6,8.44,8.44,0,0,0,6.21-2.85l5.42,4.5a14.63,14.63,0,0,1-12.14,5.69C375.35,53.13,369.15,47.29,369.15,38.6Zm19-2.43c-.36-3.1-2.17-5.06-4.86-5.06s-4.34,2-4.86,5.06Z"/><path class="cls-2" d="M401.55,24.49h9.82v5.64c1.61-3.83,4.19-6.31,8.84-6.1V34.37h-.83c-5.11,0-8,2.94-8,9.4v8.68h-9.82Z"/></g></g></svg>