<svg width="212" height="40" viewBox="0 0 212 40" fill="none" xmlns="http://www.w3.org/2000/svg">
<path d="M6.67944 28.8987C5.41337 28.9079 4.14891 28.8067 2.90041 28.5964C1.89743 28.445 0.920938 28.1524 0 27.7272L0.836111 23.7545C1.79122 24.177 2.78675 24.5014 3.80737 24.7229C4.88155 24.9666 5.97948 25.0902 7.08096 25.0913C8.27149 25.1407 9.46203 24.9939 10.6049 24.6568C11.0118 24.4937 11.3676 24.2245 11.6351 23.8772C11.9026 23.5299 12.0721 23.1173 12.126 22.6822C12.2774 22.1703 12.2231 21.6195 11.9748 21.147C11.6157 20.6722 11.1219 20.3166 10.5577 20.1266C9.57815 19.7307 8.57662 19.3916 7.55806 19.111C5.4418 18.4812 4.02467 17.6939 3.30665 16.7491C2.58864 15.8044 2.39968 14.5195 2.7398 12.8945C3.08133 11.0377 4.14461 9.39182 5.69689 8.31717C7.23999 7.2496 9.52788 6.71581 12.5606 6.71581C13.7516 6.70792 14.9413 6.79798 16.1176 6.98506C16.989 7.10734 17.8454 7.31946 18.6731 7.61805L17.8087 11.5908C16.0694 10.8839 14.2063 10.5321 12.3291 10.5562C11.1741 10.527 10.0221 10.6866 8.91851 11.0286C8.50283 11.1645 8.13302 11.413 7.85029 11.7466C7.56755 12.0803 7.38298 12.4858 7.31715 12.9181C7.19029 13.3663 7.24458 13.8464 7.46831 14.255C7.79939 14.6809 8.25259 14.9957 8.76735 15.1572C9.67113 15.4975 10.5919 15.7908 11.526 16.0358C12.8639 16.3497 14.1292 16.9174 15.2531 17.7081C15.9938 18.2485 16.5285 19.0247 16.7694 19.9093C16.97 20.8241 16.9587 21.7725 16.7364 22.6822C16.4992 23.8681 16.0041 24.9873 15.2862 25.9605C14.4813 26.9684 13.4017 27.7215 12.1779 28.1287C10.4039 28.7037 8.54312 28.9643 6.67944 28.8987Z" fill="#CEDBEE"/>
<path d="M18.6401 28.563L23.4206 6.06836H27.9271L25.2912 18.44L32.4053 12.7289H37.5495L29.7977 19.2099L34.5782 28.563H29.7977L26.4533 21.5813L24.2473 23.3527L23.1466 28.563H18.6401Z" fill="#CEDBEE"/>
<path d="M40.7807 37.2784C40.4264 37.2784 39.9729 37.2784 39.4297 37.2264C38.8864 37.1745 38.3479 37.1508 37.8236 37.0942C37.2992 37.0375 36.8788 36.9761 36.5718 36.9099L37.3181 33.4663C37.2756 33.6552 40.7098 33.8867 40.9885 33.8961C42.3567 33.9979 43.7277 33.7406 44.966 33.1498C46.7468 32.205 47.8002 29.966 48.2159 28.0575L48.419 27.0561C47.6059 27.6071 46.7246 28.0501 45.7973 28.374C44.7326 28.7338 43.6144 28.9095 42.4907 28.8937C41.477 28.9205 40.478 28.6477 39.6186 28.1095C38.8086 27.5927 38.1975 26.8168 37.885 25.9082C37.5497 24.8519 37.517 23.7228 37.7905 22.6488L39.8926 12.7288H44.4038L42.3301 22.5496C42.1033 23.6219 42.1458 24.3919 42.4434 24.8737C42.741 25.3555 43.5063 25.5917 44.7345 25.5917C45.516 25.5897 46.289 25.429 47.0066 25.1193C47.7066 24.8268 48.3593 24.432 48.9434 23.9478L51.3053 12.7241H55.8165L52.7177 27.4623C52.1697 30.0652 51.1872 32.7719 49.2693 34.6897C47.0397 36.9241 43.7945 37.2784 40.7807 37.2784Z" fill="#CEDBEE"/>
<path d="M67.0779 28.8983C65.1396 28.969 63.2183 28.5136 61.518 27.5804C60.0636 26.7327 58.9609 25.392 58.4098 23.8014C57.8209 22.1669 57.7705 20.2349 58.2586 18.0053C59.0144 14.4436 60.4851 11.6707 62.6706 9.6867C64.8562 7.70271 67.8998 6.71229 71.8017 6.71544C72.9496 6.703 74.0962 6.79789 75.2264 6.99886C76.168 7.17544 77.0914 7.43792 77.9851 7.78301L77.1396 11.7368C75.2954 10.9359 73.3019 10.5366 71.2915 10.5653C68.8415 10.5653 66.9519 11.1778 65.623 12.4029C64.294 13.6279 63.3619 15.4954 62.8265 18.0053C62.31 20.3672 62.4328 22.1386 63.195 23.3196C63.9571 24.5005 65.6497 25.091 68.273 25.091C69.3312 25.0897 70.3871 24.9948 71.4285 24.8075C72.4925 24.6152 73.5374 24.3291 74.5509 23.9525L73.7148 27.93C72.7008 28.2279 71.669 28.4614 70.6255 28.6291C69.4523 28.8157 68.2658 28.9057 67.0779 28.8983Z" fill="#CEDBEE"/>
<path d="M84.5556 28.8985C81.7213 28.8985 79.7389 28.1805 78.6083 26.7444C77.4778 25.3084 77.1881 23.2756 77.7392 20.646C78.2966 18.0196 79.3878 15.9868 81.0128 14.5476C82.6377 13.1084 84.987 12.3904 88.0606 12.3936C90.939 12.3936 92.9435 13.1116 94.074 14.5476C95.2046 15.9836 95.4959 18.0164 94.9479 20.646C94.3905 23.2724 93.3103 25.3053 91.7074 26.7444C90.1045 28.1836 87.7205 28.9016 84.5556 28.8985ZM85.3917 25.058C86.8372 25.058 87.9394 24.7289 88.6984 24.0708C89.4573 23.4126 90.0131 22.271 90.3659 20.646C90.6997 19.021 90.6556 17.8795 90.2336 17.2213C89.8116 16.5631 88.8212 16.2356 87.2623 16.2387C85.8357 16.2387 84.7335 16.5662 83.9557 17.2213C83.1857 17.8779 82.6377 19.021 82.3023 20.646C81.967 22.271 81.9811 23.4142 82.4015 24.0708C82.822 24.7274 83.8329 25.058 85.3917 25.058Z" fill="#CEDBEE"/>
<path d="M96.4502 28.563L99.7899 12.7289H103.966L103.796 14.2641C104.668 13.6971 105.605 13.2372 106.587 12.8942C107.561 12.5611 108.582 12.3919 109.611 12.3935C110.47 12.3394 111.329 12.512 112.1 12.8942C112.633 13.2153 113.031 13.7189 113.22 14.3114C114.089 13.7179 115.032 13.2415 116.026 12.8942C117.152 12.5339 118.33 12.3647 119.512 12.3935C121.209 12.3935 122.423 12.8659 123.154 13.8106C123.884 14.7554 124.051 16.1977 123.655 18.1376L121.453 28.5583H117.008L119.115 18.6384C119.337 17.5897 119.294 16.8386 118.997 16.3804C118.699 15.9222 118 15.6954 116.909 15.6954C115.56 15.6956 114.261 16.2012 113.267 17.1126C113.282 17.5714 113.237 18.0302 113.135 18.4778L111.009 28.563H106.805L108.907 18.6431C109.12 17.9206 109.103 17.1498 108.86 16.4371C108.623 15.9458 108.028 15.7002 107.074 15.7002C106.379 15.7081 105.696 15.8865 105.085 16.2198C104.434 16.5619 103.813 16.9586 103.229 17.4055L100.891 28.563H96.4502Z" fill="#CEDBEE"/>
<path d="M132.762 28.8984C131.248 28.9402 129.744 28.6314 128.369 27.9962C127.193 27.4361 126.274 26.4499 125.799 25.2375C125.295 24.0062 125.234 22.4646 125.615 20.6129C125.913 19.0692 126.477 17.589 127.282 16.2387C128.038 15.0195 129.122 14.0374 130.409 13.4044C131.973 12.687 133.683 12.3441 135.402 12.403C137.849 12.403 139.592 13.0438 140.632 14.3255C141.671 15.6073 141.965 17.2826 141.515 19.3516L140.915 22.2237H129.455C129.433 23.4834 129.773 24.3526 130.476 24.8312C131.175 25.3036 132.497 25.5351 134.434 25.5351C135.318 25.5309 136.2 25.4519 137.07 25.2989C137.874 25.1702 138.664 24.9694 139.432 24.699L138.761 27.9064C137.888 28.2585 136.976 28.5074 136.045 28.6481C134.959 28.8192 133.861 28.9029 132.762 28.8984ZM130.055 19.4509H137.575L137.741 18.5864C137.855 18.2251 137.884 17.8422 137.826 17.4677C137.768 17.0932 137.624 16.7372 137.405 16.4276C136.985 15.908 136.135 15.6435 134.869 15.6435C133.376 15.6435 132.271 15.9458 131.562 16.5457C130.757 17.3207 130.228 18.3376 130.055 19.4414V19.4509Z" fill="#CEDBEE"/>
<path d="M150.902 28.8984C149.387 28.9401 147.884 28.6314 146.509 27.9961C145.333 27.4361 144.414 26.4498 143.939 25.2374C143.438 24.0061 143.377 22.4646 143.755 20.6128C144.053 19.0691 144.617 17.589 145.422 16.2386C146.178 15.0194 147.262 14.0373 148.549 13.4043C150.107 12.6866 151.809 12.3405 153.523 12.3935C155.977 12.3935 157.72 13.0343 158.753 14.316C159.785 15.5978 160.089 17.2731 159.664 19.3421L159.064 22.2142H147.595C147.573 23.4739 147.913 24.3431 148.615 24.8217C149.314 25.2941 150.637 25.5256 152.574 25.5256C153.459 25.5212 154.342 25.4422 155.214 25.2894C156.018 25.1604 156.809 24.9596 157.576 24.6895L156.906 27.8969C156.025 28.2546 155.105 28.5067 154.166 28.648C153.086 28.8181 151.995 28.9018 150.902 28.8984ZM148.2 19.4508H155.715L155.88 18.5863C155.996 18.2252 156.026 17.8421 155.968 17.4674C155.909 17.0927 155.765 16.7367 155.545 16.4276C155.125 15.908 154.279 15.6434 153.008 15.6434C151.516 15.6434 150.414 15.9442 149.702 16.5457C148.897 17.3201 148.369 18.3375 148.2 19.4413V19.4508Z" fill="#CEDBEE"/>
<path d="M167.071 28.8985C165.314 28.8985 164.078 28.4262 163.363 27.4814C162.65 26.5366 162.475 25.2187 162.829 23.5701L164.388 16.201H162.149L162.881 12.729H165.12L165.857 9.32316L170.633 7.98633L169.631 12.7101H173.642L172.636 16.1821H168.894L167.392 23.2347C167.213 24.1039 167.265 24.6991 167.543 25.0203C167.822 25.3415 168.441 25.4927 169.395 25.4927C170.077 25.4791 170.753 25.3661 171.403 25.1573L170.732 28.2656C169.559 28.6925 168.319 28.9068 167.071 28.8985Z" fill="#CEDBEE"/>
<path d="M207.847 3.30503C205.286 1.34466 201.517 0.399902 196.335 0.399902H80.7343L79.832 3.98998H185.173C185.532 3.98998 185.848 3.98998 186.117 4.01832H192.126C196.273 4.01832 200.884 4.25451 203.638 6.00231C208.503 9.10584 208.258 17.4244 206.944 21.9451C206.196 24.6968 204.81 27.2332 202.897 29.3484C200.985 31.4635 198.601 33.0978 195.938 34.1183C191.176 35.9133 187.364 35.8094 182.952 35.6913C181.809 35.6583 180.623 35.6252 179.372 35.6252H115.534L114.287 39.6971H189.66C194.545 39.6971 197.648 38.8374 201.942 36.296C205.83 34.0097 208.858 30.0511 210.483 25.1573C211.772 21.2601 212.226 16.7159 211.819 11.6425C211.673 9.51681 210.931 5.63386 207.847 3.30503Z" fill="#CEDBEE"/>
<path d="M203.283 14.4009C203.192 13.115 202.814 11.8658 202.178 10.7447C201.79 10.0858 201.28 9.50705 200.676 9.03943C198.687 7.53254 195.881 7.19243 193.467 7.19243H190.586C187.892 7.10249 185.235 7.83756 182.971 9.29924C182.411 9.63756 181.883 10.0265 181.393 10.4613C179.654 12.022 178.366 14.0202 177.661 16.2479C176.837 18.924 176.556 21.7378 176.835 24.524C176.919 25.8093 177.292 27.0591 177.926 28.1802C178.311 28.8409 178.821 29.4201 179.428 29.8855C181.417 31.3971 184.218 31.7325 186.637 31.7325H189.513C192.209 31.8234 194.867 31.0883 197.133 29.6257C197.702 29.2877 198.24 28.8987 198.739 28.4636C200.478 26.903 201.766 24.9048 202.471 22.677C203.288 19.9995 203.564 17.1862 203.283 14.4009ZM194.875 21.1843C194.259 22.0848 193.432 22.8211 192.466 23.3289C192.216 23.4404 191.984 23.5867 191.776 23.7635C191.674 23.8543 191.599 23.9718 191.56 24.1028C191.521 24.2338 191.519 24.3731 191.554 24.5051C191.686 24.8594 192.145 24.9775 192.499 24.9255C193 24.8736 193.514 24.6704 193.973 25.0531C194.165 25.228 194.297 25.4597 194.349 25.7145C194.4 25.9693 194.37 26.234 194.261 26.4702C193.925 27.3016 193.075 27.6748 192.277 27.9818C190.411 28.6998 188.469 29.3423 186.471 29.3092C184.261 29.2761 181.946 28.2841 180.963 26.2387C180.684 25.6982 180.62 25.0721 180.784 24.4862C181.185 23.1919 182.499 23.0691 183.585 22.6817C184.714 22.2836 185.7 21.5604 186.419 20.6033C186.647 20.3316 186.801 20.0065 186.868 19.6585C186.9 19.48 186.881 19.296 186.811 19.1285C186.741 18.9609 186.625 18.817 186.476 18.7137C186.177 18.5856 185.844 18.5639 185.531 18.6523L183.136 19.0586C182.848 19.1036 182.553 19.0795 182.275 18.9882C181.998 18.897 181.746 18.7413 181.54 18.5338C181.334 18.3263 181.181 18.0731 181.092 17.7948C181.003 17.5165 180.982 17.2211 181.03 16.9329C181.502 14.2781 182.839 12.0343 185.248 10.792H185.3C186.07 10.5747 186.604 10.3715 187.374 10.159C187.943 9.95722 188.547 9.87207 189.15 9.90861C189.451 9.93101 189.739 10.0408 189.979 10.2245C190.219 10.4083 190.4 10.658 190.501 10.9431C190.723 11.7934 189.934 12.5634 189.154 12.9649C188.375 13.3664 187.459 13.6782 187.038 14.4482C186.901 14.7181 186.827 15.0153 186.821 15.3178C186.814 15.6203 186.875 15.9204 187 16.196C187.259 16.7452 187.675 17.2054 188.195 17.5186C189.513 18.3547 191.171 18.3925 192.726 18.3075C193.197 18.2545 193.674 18.2672 194.143 18.3453C194.374 18.3821 194.594 18.4682 194.789 18.5978C194.984 18.7274 195.148 18.8975 195.272 19.0964C195.612 19.7672 195.295 20.5655 194.875 21.1843ZM199.551 17.0274C199.431 17.2994 199.221 17.522 198.956 17.6586C198.691 17.7951 198.388 17.8374 198.097 17.7784C197.374 17.547 197.175 16.5928 196.571 16.1298C196.089 15.8338 195.52 15.7136 194.96 15.7897C194.403 15.8668 193.836 15.8233 193.297 15.6622C193.032 15.5702 192.81 15.3817 192.677 15.134C192.544 14.8863 192.509 14.5976 192.579 14.3253C192.753 14.0353 192.999 13.7946 193.292 13.6262C193.439 13.54 193.561 13.419 193.65 13.274C193.738 13.1289 193.789 12.9643 193.798 12.7948C193.751 12.2422 193.033 12.0721 192.631 11.6942C192.431 11.4897 192.312 11.2201 192.295 10.9347C192.277 10.6494 192.363 10.3673 192.537 10.1401C193.311 9.19531 195.909 9.81886 196.854 10.1401C197.763 10.3965 198.561 10.9483 199.122 11.7084C199.821 12.7476 199.84 14.0703 199.835 15.3268C199.869 15.9062 199.772 16.4858 199.551 17.0226V17.0274Z" fill="#CEDBEE"/>
</svg>
