<svg width="212" height="40" viewBox="0 0 212 40" fill="none" xmlns="http://www.w3.org/2000/svg">
<g clip-path="url(#clip0_626:4)">
<path d="M207.866 2.9054C205.306 0.944847 201.536 0 196.353 0H80.7417L79.8394 3.59042H185.19C185.549 3.59042 185.865 3.59042 186.135 3.61876H192.144C196.292 3.61876 200.903 3.85497 203.657 5.60294C208.523 8.70676 208.277 17.0261 206.964 21.5472C206.216 24.2992 204.829 26.8358 202.916 28.9512C201.004 31.0666 198.619 32.7009 195.956 33.7216C191.194 35.5168 187.382 35.4128 182.969 35.2947C181.826 35.2617 180.64 35.2286 179.388 35.2286H115.545L114.298 39.3009H189.678C194.563 39.3009 197.666 38.4411 201.961 35.8994C205.849 33.6129 208.877 29.654 210.502 24.7597C211.792 20.8622 212.245 16.3175 211.839 11.2437C211.693 9.11777 210.951 5.23445 207.866 2.9054Z" fill="#E7127A"/>
<path d="M203.302 14.0027C203.211 12.7167 202.833 11.4673 202.197 10.3461C201.809 9.68719 201.299 9.10834 200.695 8.64068C198.706 7.13365 195.899 6.7935 193.485 6.7935H190.604C187.91 6.70355 185.253 7.4387 182.988 8.90051C182.428 9.23886 181.9 9.62788 181.41 10.0627C179.671 11.6235 178.383 13.6219 177.678 15.8499C176.854 18.5262 176.573 21.3402 176.851 24.1267C176.935 25.4122 177.308 26.6621 177.943 27.7833C178.328 28.444 178.838 29.0233 179.445 29.4887C181.434 31.0005 184.235 31.3359 186.654 31.3359H189.531C192.227 31.4268 194.886 30.6916 197.151 29.2289C197.721 28.8908 198.258 28.5018 198.758 28.0667C200.497 26.5059 201.785 24.5075 202.49 22.2795C203.307 19.6018 203.583 16.7882 203.302 14.0027Z" fill="#E7127A"/>
<path d="M6.68007 28.5013C5.41388 28.5104 4.14931 28.4093 2.90068 28.1989C1.89761 28.0475 0.921025 27.7549 0 27.3297L0.836189 23.3566C1.79139 23.7791 2.78701 24.1036 3.80773 24.3251C4.88201 24.5688 5.98005 24.6924 7.08163 24.6935C8.27227 24.7429 9.46293 24.5961 10.6059 24.2589C11.0129 24.0958 11.3686 23.8266 11.6362 23.4793C11.9037 23.132 12.0733 22.7193 12.1271 22.2842C12.2785 21.7722 12.2243 21.2214 11.9759 20.7488C11.6168 20.274 11.1229 19.9184 10.5587 19.7284C9.57906 19.3324 8.57743 18.9933 7.55877 18.7127C5.44232 18.0828 4.02505 17.2954 3.30696 16.3505C2.58888 15.4057 2.39991 14.1207 2.74006 12.4956C3.08162 10.6386 4.145 8.99254 5.69743 7.91779C7.24068 6.85011 9.52878 6.31627 12.5617 6.31627C13.7529 6.30839 14.9427 6.39845 16.1191 6.58555C16.9906 6.70784 17.8471 6.91998 18.6749 7.2186L17.8104 11.1917C16.071 10.4847 14.2077 10.1329 12.3303 10.1571C11.1752 10.1279 10.023 10.2874 8.91935 10.6295C8.50363 10.7653 8.13379 11.0139 7.85103 11.3476C7.56826 11.6812 7.38368 12.0868 7.31784 12.5192C7.19097 12.9674 7.24526 13.4476 7.46901 13.8561C7.80012 14.2822 8.25337 14.597 8.76818 14.7585C9.67205 15.0988 10.5929 15.3921 11.5271 15.6372C12.8651 15.9511 14.1305 16.5188 15.2546 17.3096C15.9953 17.85 16.5301 18.6264 16.771 19.5111C16.9716 20.4259 16.9603 21.3744 16.738 22.2842C16.5007 23.4702 16.0056 24.5895 15.2876 25.5628C14.4827 26.5708 13.403 27.3239 12.1791 27.7312C10.4049 28.3062 8.54393 28.5668 6.68007 28.5013Z" fill="white"/>
<path d="M18.6421 28.1659L23.423 5.66907H27.9299L25.2938 18.0418L32.4085 12.3302H37.5532L29.8007 18.8119L34.5817 28.1659H29.8007L26.456 21.1835L24.2498 22.955L23.149 28.1659H18.6421Z" fill="white"/>
<path d="M40.7845 36.8821C40.4302 36.8821 39.9766 36.8821 39.4334 36.8302C38.8901 36.7782 38.3515 36.7546 37.8271 36.6979C37.3027 36.6412 36.8823 36.5798 36.5752 36.5136L37.3216 33.0697C37.2791 33.2586 40.7136 33.4901 40.9924 33.4996C42.3607 33.6013 43.7318 33.344 44.9702 32.7532C46.7512 31.8083 47.8047 29.569 48.2204 27.6604L48.4236 26.6589C47.6104 27.21 46.729 27.653 45.8016 27.977C44.7368 28.3368 43.6185 28.5125 42.4947 28.4966C41.4809 28.5235 40.4818 28.2507 39.6223 27.7124C38.8122 27.1956 38.2011 26.4196 37.8885 25.5109C37.5532 24.4545 37.5205 23.3252 37.794 22.2512L39.8963 12.3303H44.408L42.334 22.152C42.1073 23.2244 42.1498 23.9944 42.4474 24.4763C42.745 24.9582 43.5104 25.1944 44.7387 25.1944C45.5203 25.1924 46.2934 25.0316 47.011 24.722C47.7111 24.4294 48.3638 24.0346 48.948 23.5503L51.3101 12.3256H55.8217L52.7226 27.0652C52.1746 29.6682 51.192 32.3752 49.2739 34.2932C47.0441 36.5278 43.7986 36.8821 40.7845 36.8821Z" fill="white"/>
<path d="M67.0841 28.5013C65.1457 28.572 63.2242 28.1165 61.5237 27.1832C60.0692 26.3354 58.9664 24.9946 58.4152 23.4038C57.8262 21.7692 57.7758 19.837 58.264 17.6072C59.0199 14.0451 60.4907 11.272 62.6764 9.28781C64.8622 7.30363 67.9062 6.31312 71.8084 6.31627C72.9564 6.30383 74.1031 6.39873 75.2334 6.59972C76.1751 6.77631 77.0986 7.03882 77.9924 7.38394L77.1468 11.3381C75.3024 10.5371 73.3087 10.1377 71.2982 10.1665C68.8479 10.1665 66.9582 10.7791 65.6291 12.0042C64.3 13.2294 63.3677 15.097 62.8323 17.6072C62.3158 19.9693 62.4386 21.7409 63.2008 22.9219C63.963 24.103 65.6558 24.6935 68.2794 24.6935C69.3376 24.6922 70.3936 24.5974 71.4352 24.4101C72.4993 24.2177 73.5442 23.9316 74.5579 23.555L73.7217 27.5328C72.7076 27.8308 71.6756 28.0643 70.632 28.232C69.4588 28.4186 68.2721 28.5086 67.0841 28.5013Z" fill="white"/>
<path d="M84.5636 28.5012C81.729 28.5012 79.7464 27.7832 78.6158 26.347C77.4851 24.9108 77.1954 22.8778 77.7465 20.248C78.304 17.6213 79.3953 15.5883 81.0204 14.149C82.6455 12.7097 84.9951 11.9916 88.069 11.9948C90.9476 11.9948 92.9522 12.7128 94.0829 14.149C95.2136 15.5852 95.5049 17.6182 94.9569 20.248C94.3994 22.8747 93.3192 24.9077 91.7161 26.347C90.113 27.7863 87.7288 28.5044 84.5636 28.5012ZM85.3998 24.6604C86.8454 24.6604 87.9477 24.3313 88.7067 23.6731C89.4658 23.0148 90.0217 21.8731 90.3744 20.248C90.7082 18.6229 90.6641 17.4812 90.2421 16.8229C89.8201 16.1647 88.8296 15.8371 87.2706 15.8403C85.8439 15.8403 84.7415 16.1678 83.9636 16.8229C83.1936 17.4796 82.6455 18.6229 82.3101 20.248C81.9747 21.8731 81.9889 23.0164 82.4093 23.6731C82.8298 24.3297 83.8408 24.6604 85.3998 24.6604Z" fill="white"/>
<path d="M96.4595 28.1658L99.7995 12.3301H103.976L103.806 13.8655C104.678 13.2984 105.615 12.8385 106.598 12.4955C107.571 12.1623 108.593 11.9931 109.621 11.9947C110.481 11.9406 111.339 12.1133 112.111 12.4955C112.644 12.8165 113.041 13.3202 113.231 13.9127C114.1 13.3193 115.043 12.8427 116.037 12.4955C117.163 12.1351 118.341 11.9659 119.523 11.9947C121.221 11.9947 122.435 12.4671 123.166 13.412C123.896 14.3568 124.063 15.7993 123.666 17.7394L121.465 28.161H117.019L119.126 18.2401C119.348 17.1914 119.306 16.4402 119.008 15.982C118.711 15.5237 118.011 15.2969 116.92 15.2969C115.571 15.2971 114.272 15.8028 113.278 16.7142C113.292 17.1731 113.248 17.632 113.145 18.0795L111.02 28.1658H106.815L108.917 18.2449C109.13 17.5223 109.114 16.7514 108.87 16.0387C108.634 15.5473 108.039 15.3017 107.084 15.3017C106.389 15.3096 105.706 15.488 105.095 15.8213C104.444 16.1635 103.823 16.5602 103.239 17.0071L100.9 28.1658H96.4595Z" fill="white"/>
<path d="M132.775 28.5012C131.26 28.543 129.757 28.2341 128.381 27.5988C127.205 27.0387 126.287 26.0524 125.811 24.8399C125.307 23.6084 125.246 22.0668 125.627 20.2149C125.925 18.671 126.489 17.1907 127.295 15.8402C128.051 14.6209 129.135 13.6387 130.422 13.0057C131.986 12.2882 133.696 11.9453 135.416 12.0042C137.863 12.0042 139.606 12.6451 140.645 13.9269C141.685 15.2088 141.979 16.8843 141.529 18.9535L140.929 21.8258H129.468C129.446 23.0856 129.786 23.9549 130.488 24.4336C131.187 24.906 132.51 25.1375 134.447 25.1375C135.331 25.1334 136.213 25.0543 137.083 24.9013C137.887 24.7726 138.678 24.5718 139.445 24.3013L138.775 27.5091C137.901 27.8612 136.989 28.1101 136.058 28.2508C134.972 28.4219 133.874 28.5056 132.775 28.5012ZM130.068 19.0527H137.589L137.754 18.1882C137.869 17.8268 137.898 17.4439 137.84 17.0693C137.781 16.6948 137.637 16.3388 137.419 16.0292C136.998 15.5095 136.148 15.245 134.882 15.245C133.389 15.245 132.283 15.5473 131.575 16.1473C130.77 16.9224 130.241 17.9394 130.068 19.0433V19.0527Z" fill="white"/>
<path d="M150.916 28.5012C149.401 28.543 147.897 28.2342 146.522 27.5989C145.346 27.0388 144.427 26.0525 143.952 24.84C143.451 23.6085 143.39 22.0668 143.768 20.2149C144.066 18.6711 144.63 17.1908 145.435 15.8403C146.192 14.621 147.275 13.6388 148.563 13.0058C150.12 12.2879 151.823 11.9418 153.537 11.9948C155.991 11.9948 157.734 12.6357 158.767 13.9175C159.8 15.1994 160.104 16.8749 159.679 18.9441L159.079 21.8165H147.609C147.587 23.0763 147.927 23.9455 148.629 24.4242C149.328 24.8967 150.651 25.1281 152.588 25.1281C153.473 25.1238 154.357 25.0448 155.229 24.8919C156.032 24.7629 156.823 24.5621 157.591 24.292L156.92 27.4997C156.04 27.8574 155.12 28.1096 154.18 28.2509C153.1 28.421 152.009 28.5047 150.916 28.5012ZM148.213 19.0528H155.729L155.895 18.1882C156.01 17.827 156.04 17.4439 155.982 17.0692C155.924 16.6944 155.779 16.3384 155.559 16.0293C155.139 15.5096 154.293 15.245 153.023 15.245C151.53 15.245 150.427 15.5458 149.716 16.1474C148.911 16.9218 148.383 17.9394 148.213 19.0433V19.0528Z" fill="white"/>
<path d="M167.087 28.5012C165.329 28.5012 164.093 28.0288 163.378 27.084C162.665 26.1391 162.49 24.821 162.844 23.1723L164.403 15.8025H162.164L162.896 12.3302H165.136L165.873 8.92399L170.649 7.58704L169.647 12.3113H173.658L172.652 15.7836H168.91L167.408 22.8369C167.228 23.7061 167.28 24.3014 167.559 24.6226C167.838 24.9439 168.457 25.095 169.411 25.095C170.093 25.0814 170.769 24.9685 171.419 24.7596L170.748 27.8682C169.575 28.2951 168.335 28.5095 167.087 28.5012Z" fill="white"/>
</g>
<defs>
<clipPath id="clip0_626:4">
<rect width="212" height="39.282" fill="white"/>
</clipPath>
</defs>
</svg>
