<svg xmlns="http://www.w3.org/2000/svg" viewBox="0 0 448.75 83.15"><defs><style>.cls-1{fill:#fff;}.cls-2{fill:#e7127a;}</style></defs><g id="Capa_2" data-name="Capa 2"><g id="Capa_1-2" data-name="Capa 1"><path class="cls-1" d="M14.14,60.33a46.15,46.15,0,0,1-8-.64A22.75,22.75,0,0,1,0,57.85l1.77-8.41a32.68,32.68,0,0,0,6.29,2.05,31.47,31.47,0,0,0,6.93.78,23,23,0,0,0,7.46-.92,5.19,5.19,0,0,0,3.22-4.18,4.34,4.34,0,0,0-.32-3.25,6.27,6.27,0,0,0-3-2.16A58.17,58.17,0,0,0,16,39.61q-6.72-2-9-5T5.8,26.45a15.11,15.11,0,0,1,6.26-9.69q4.9-3.39,14.53-3.39a46,46,0,0,1,7.53.57,27,27,0,0,1,5.41,1.34L37.7,23.69A29.79,29.79,0,0,0,26.1,21.5a22.47,22.47,0,0,0-7.22,1,5,5,0,0,0-3.39,4,3.76,3.76,0,0,0,.32,2.83,5.61,5.61,0,0,0,2.75,1.91A59.23,59.23,0,0,0,24.4,33.1a22.74,22.74,0,0,1,7.89,3.54A8.55,8.55,0,0,1,35.5,41.3a13,13,0,0,1-.07,5.87,17.46,17.46,0,0,1-3.07,6.94,14.13,14.13,0,0,1-6.58,4.59A33.89,33.89,0,0,1,14.14,60.33Z"/><path class="cls-1" d="M39.46,59.62,49.58,12h9.54L53.54,38.19,68.6,26.1H79.49L63.08,39.82,73.2,59.62H63.08L56,44.84l-4.67,3.75L49,59.62Z"/><path class="cls-1" d="M86.33,78.07c-.75,0-1.71,0-2.86-.11s-2.29-.16-3.4-.28-2-.25-2.65-.39L79,70c-.09.4,7.18.89,7.77.91a16.68,16.68,0,0,0,8.42-1.58c3.77-2,6-6.74,6.88-10.78l.43-2.12a24,24,0,0,1-5.55,2.79,20.94,20.94,0,0,1-7,1.1,10.91,10.91,0,0,1-6.08-1.66A9,9,0,0,1,80.2,54,12.56,12.56,0,0,1,80,47.1l4.45-21H94L89.61,46.89c-.48,2.27-.39,3.9.24,4.92s2.25,1.52,4.85,1.52a12.22,12.22,0,0,0,4.81-1,16.23,16.23,0,0,0,4.1-2.48l5-23.76h9.55L111.6,57.29c-1.16,5.51-3.24,11.24-7.3,15.3C99.58,77.32,92.71,78.07,86.33,78.07Z"/><path class="cls-1" d="M142,60.33a22.74,22.74,0,0,1-11.77-2.79,14.91,14.91,0,0,1-6.58-8q-1.87-5.19-.32-12.27,2.4-11.31,9.34-17.61T152,13.37a39,39,0,0,1,7.25.6,33.2,33.2,0,0,1,5.84,1.66L163.3,24a30,30,0,0,0-12.38-2.48q-7.78,0-12,3.89T133,37.27q-1.64,7.5.78,11.25t10.75,3.75a38,38,0,0,0,6.68-.6,38.8,38.8,0,0,0,6.61-1.81l-1.77,8.42a53.06,53.06,0,0,1-6.54,1.48A46,46,0,0,1,142,60.33Z"/><path class="cls-1" d="M179,60.33q-9,0-12.59-4.56t-1.84-12.91q1.77-8.34,6.93-12.91t14.92-4.56q9.14,0,12.73,4.56T201,42.86q-1.77,8.34-6.86,12.91T179,60.33Zm1.77-8.13q4.59,0,7-2.09t3.53-7.25q1.06-5.16-.28-7.25t-6.29-2.08q-4.53,0-7,2.08c-1.63,1.39-2.79,3.81-3.5,7.25s-.68,5.86.21,7.25S177.47,52.2,180.77,52.2Z"/><path class="cls-1" d="M204.18,59.62l7.07-33.52h8.84l-.36,3.25a27.44,27.44,0,0,1,5.91-2.9,19.66,19.66,0,0,1,6.4-1.06,10.4,10.4,0,0,1,5.27,1.06,5.43,5.43,0,0,1,2.37,3,25.39,25.39,0,0,1,5.94-3A22.42,22.42,0,0,1,253,25.39q5.39,0,7.71,3t1.06,9.16l-4.66,22.06h-9.41l4.46-21c.47-2.22.38-3.81-.25-4.78s-2.11-1.45-4.42-1.45a11.41,11.41,0,0,0-7.71,3,11.33,11.33,0,0,1-.28,2.89L235,59.62H226.1l4.45-21a7.7,7.7,0,0,0-.1-4.67q-.75-1.56-3.78-1.56a9,9,0,0,0-4.21,1.1A27.6,27.6,0,0,0,218.53,36l-4.95,23.62Z"/><path class="cls-1" d="M281.05,60.33a20.81,20.81,0,0,1-9.3-1.91,10.86,10.86,0,0,1-5.44-5.84q-1.6-3.91-.39-9.79a28.7,28.7,0,0,1,3.53-9.26,16.2,16.2,0,0,1,6.62-6,23.43,23.43,0,0,1,10.57-2.12q7.77,0,11.07,4.07t1.87,10.64l-1.27,6.08H274.05q-.07,4,2.16,5.52c1.48,1,4.28,1.49,8.38,1.49a33.13,33.13,0,0,0,5.58-.5,28.73,28.73,0,0,0,5-1.27l-1.42,6.79A25.61,25.61,0,0,1,288,59.8,43.52,43.52,0,0,1,281.05,60.33Zm-5.73-20h15.92l.35-1.83a5.2,5.2,0,0,0-.71-4.57c-.89-1.1-2.69-1.66-5.37-1.66-3.16,0-5.5.64-7,1.91A10.84,10.84,0,0,0,275.32,40.31Z"/><path class="cls-1" d="M319.45,60.33a20.81,20.81,0,0,1-9.3-1.91,10.86,10.86,0,0,1-5.44-5.84q-1.59-3.91-.39-9.79a28.7,28.7,0,0,1,3.53-9.26,16.2,16.2,0,0,1,6.62-6A23.43,23.43,0,0,1,325,25.39q7.79,0,11.07,4.07T338,40.1l-1.27,6.08H312.45q-.07,4,2.16,5.52c1.48,1,4.28,1.49,8.38,1.49a33.34,33.34,0,0,0,5.59-.5,28.84,28.84,0,0,0,5-1.27l-1.42,6.79a25.47,25.47,0,0,1-5.8,1.59A43.52,43.52,0,0,1,319.45,60.33Zm-5.72-20h15.91l.35-1.83a5.17,5.17,0,0,0-.71-4.57c-.89-1.1-2.68-1.66-5.37-1.66q-4.74,0-7,1.91A10.78,10.78,0,0,0,313.73,40.31Z"/><path class="cls-1" d="M353.68,60.33q-5.58,0-7.85-3c-1.51-2-1.88-4.79-1.13-8.28L348,33.45h-4.74l1.55-7.35h4.74l1.56-7.21,10.11-2.83-2.12,10h8.49l-2.13,7.35h-7.92l-3.18,14.93c-.38,1.84-.27,3.1.32,3.78s1.9,1,3.92,1a14.85,14.85,0,0,0,4.25-.71l-1.42,6.58A22.23,22.23,0,0,1,353.68,60.33Z"/><path class="cls-2" d="M440,6.15C434.58,2,426.6,0,415.63,0H170.91L169,7.6h223c.76,0,1.43,0,2,.06v0h12.72c8.78,0,18.54.5,24.37,4.2,10.3,6.57,9.78,24.18,7,33.75a38.38,38.38,0,0,1-23.3,25.77c-10.08,3.8-18.15,3.58-27.49,3.33-2.42-.07-4.93-.14-7.58-.14H244.58l-2.64,8.62H401.5c10.34,0,16.91-1.82,26-7.2,8.23-4.84,14.64-13.22,18.08-23.58,2.73-8.25,3.69-17.87,2.83-28.61C448.1,19.3,446.53,11.08,440,6.15Z"/><path class="cls-2" d="M430.34,29.64A18.3,18.3,0,0,0,428,21.9a12.71,12.71,0,0,0-3.18-3.61c-4.21-3.19-10.15-3.91-15.26-3.91h-6.1a28,28,0,0,0-16.12,4.46A22.67,22.67,0,0,0,384,21.3a27.67,27.67,0,0,0-7.9,12.25,44.48,44.48,0,0,0-1.75,17.52,18.12,18.12,0,0,0,2.31,7.74,12.45,12.45,0,0,0,3.18,3.61c4.21,3.2,10.14,3.91,15.26,3.91h6.09a28,28,0,0,0,16.13-4.46,23.2,23.2,0,0,0,3.4-2.46,27.67,27.67,0,0,0,7.9-12.25A44.67,44.67,0,0,0,430.34,29.64ZM412.54,44a14.17,14.17,0,0,1-5.1,4.54,6.11,6.11,0,0,0-1.46.92,1.56,1.56,0,0,0-.47,1.57c.28.75,1.25,1,2,.89,1.06-.11,2.15-.54,3.12.27a2.59,2.59,0,0,1,.61,3c-.71,1.76-2.51,2.55-4.2,3.2-3.95,1.52-8.06,2.88-12.29,2.81-4.68-.07-9.58-2.17-11.66-6.5a5.1,5.1,0,0,1-.38-3.71c.85-2.74,3.63-3,5.93-3.82a12.85,12.85,0,0,0,6-4.4,4.41,4.41,0,0,0,.95-2,2,2,0,0,0-.83-2,3,3,0,0,0-2-.13l-5.07.86A3.91,3.91,0,0,1,383.23,35c1-5.62,3.83-10.37,8.93-13l.11,0c1.63-.46,2.76-.89,4.39-1.34a9.53,9.53,0,0,1,3.76-.53,3.29,3.29,0,0,1,2.86,2.19c.47,1.8-1.2,3.43-2.85,4.28s-3.59,1.51-4.48,3.14a4.28,4.28,0,0,0-.08,3.7,6.51,6.51,0,0,0,2.53,2.8c2.79,1.77,6.3,1.85,9.59,1.67a10.86,10.86,0,0,1,3,.08,3.45,3.45,0,0,1,2.39,1.59C414.1,41,413.43,42.69,412.54,44Zm9.9-8.8a2.77,2.77,0,0,1-3.08,1.59c-1.53-.49-1.95-2.51-3.23-3.49a5.18,5.18,0,0,0-3.41-.72,8.31,8.31,0,0,1-3.52-.27,2.37,2.37,0,0,1-1.52-2.83A4.2,4.2,0,0,1,409.19,28a2.18,2.18,0,0,0,1.07-1.76c-.1-1.17-1.62-1.53-2.47-2.33a2.52,2.52,0,0,1-.2-3.29c1.64-2,7.14-.68,9.14,0a9,9,0,0,1,4.8,3.32c1.48,2.2,1.52,5,1.51,7.66A8.19,8.19,0,0,1,422.44,35.19Z"/></g></g></svg>