<svg width="212" height="40" viewBox="0 0 212 40" fill="none" xmlns="http://www.w3.org/2000/svg">
<path d="M207.866 3.30531C205.306 1.34475 201.536 0.399902 196.353 0.399902H80.7417L79.8394 3.99032H185.19C185.549 3.99032 185.865 3.99032 186.135 4.01866H192.144C196.292 4.01866 200.903 4.25488 203.657 6.00284C208.523 9.10666 208.277 17.426 206.964 21.9471C206.216 24.6991 204.829 27.2357 202.916 29.3511C201.004 31.4665 198.619 33.1008 195.956 34.1215C191.194 35.9167 187.382 35.8128 182.969 35.6946C181.826 35.6616 180.64 35.6285 179.388 35.6285H115.545L114.298 39.7008H189.678C194.563 39.7008 197.666 38.841 201.961 36.2994C205.849 34.0128 208.877 30.0539 210.502 25.1596C211.792 21.2621 212.245 16.7174 211.839 11.6436C211.693 9.51767 210.951 5.63435 207.866 3.30531Z" fill="#CEDBEE"/>
<path d="M203.303 14.4026C203.212 13.1166 202.834 11.8672 202.197 10.746C201.81 10.0871 201.3 9.50824 200.695 9.04058C198.706 7.53355 195.9 7.19341 193.486 7.19341H190.604C187.91 7.10346 185.253 7.8386 182.989 9.30041C182.428 9.63877 181.9 10.0278 181.411 10.4626C179.672 12.0234 178.383 14.0218 177.679 16.2498C176.854 18.9261 176.573 21.7401 176.852 24.5266C176.936 25.8121 177.309 27.062 177.943 28.1832C178.328 28.8439 178.839 29.4232 179.445 29.8886C181.434 31.4004 184.236 31.7358 186.655 31.7358H189.532C192.227 31.8267 194.886 31.0915 197.152 29.6288C197.721 29.2907 198.259 28.9017 198.758 28.4666C200.497 26.9058 201.786 24.9074 202.49 22.6794C203.308 20.0017 203.584 17.1881 203.303 14.4026Z" fill="#CEDBEE"/>
<path d="M6.68007 28.9013C5.41388 28.9105 4.14931 28.8093 2.90068 28.5989C1.89761 28.4475 0.921025 28.1549 0 27.7297L0.836189 23.7566C1.79139 24.1791 2.78701 24.5036 3.80773 24.7251C4.88201 24.9688 5.98005 25.0924 7.08163 25.0936C8.27227 25.1429 9.46293 24.9961 10.6059 24.6589C11.0129 24.4958 11.3686 24.2266 11.6362 23.8793C11.9037 23.532 12.0733 23.1193 12.1271 22.6842C12.2785 22.1723 12.2243 21.6214 11.9759 21.1488C11.6168 20.674 11.1229 20.3184 10.5587 20.1284C9.57906 19.7324 8.57743 19.3933 7.55877 19.1127C5.44232 18.4828 4.02505 17.6954 3.30696 16.7506C2.58888 15.8057 2.39991 14.5207 2.74006 12.8956C3.08162 11.0386 4.145 9.39256 5.69743 8.31781C7.24068 7.25014 9.52878 6.7163 12.5617 6.7163C13.7529 6.70841 14.9427 6.79847 16.1191 6.98558C16.9906 7.10786 17.8471 7.32001 18.6749 7.61863L17.8104 11.5917C16.071 10.8847 14.2077 10.533 12.3303 10.5571C11.1752 10.5279 10.023 10.6875 8.91935 11.0295C8.50363 11.1654 8.13379 11.414 7.85103 11.7476C7.56826 12.0812 7.38368 12.4868 7.31784 12.9192C7.19097 13.3675 7.24526 13.8476 7.46901 14.2562C7.80012 14.6822 8.25337 14.997 8.76818 15.1585C9.67205 15.4988 10.5929 15.7921 11.5271 16.0372C12.8651 16.3511 14.1305 16.9188 15.2546 17.7096C15.9953 18.25 16.5301 19.0264 16.771 19.9111C16.9716 20.8259 16.9603 21.7744 16.738 22.6842C16.5007 23.8702 16.0056 24.9895 15.2876 25.9628C14.4827 26.9708 13.403 27.724 12.1791 28.1313C10.4049 28.7063 8.54393 28.9669 6.68007 28.9013Z" fill="#CEDBEE"/>
<path d="M18.6421 28.5656L23.423 6.06885H27.9299L25.2938 18.4416L32.4085 12.73H37.5532L29.8007 19.2117L34.5817 28.5656H29.8007L26.456 21.5832L24.2498 23.3548L23.149 28.5656H18.6421Z" fill="#CEDBEE"/>
<path d="M40.7845 37.2822C40.4302 37.2822 39.9766 37.2822 39.4334 37.2302C38.8901 37.1782 38.3515 37.1546 37.8271 37.0979C37.3027 37.0412 36.8823 36.9798 36.5752 36.9137L37.3216 33.4697C37.2791 33.6587 40.7136 33.8902 40.9924 33.8996C42.3607 34.0014 43.7318 33.7441 44.9702 33.1532C46.7512 32.2083 47.8047 29.969 48.2204 28.0605L48.4236 27.0589C47.6104 27.61 46.729 28.0531 45.8016 28.377C44.7368 28.7368 43.6185 28.9125 42.4947 28.8966C41.4809 28.9235 40.4818 28.6507 39.6223 28.1124C38.8122 27.5956 38.2011 26.8196 37.8885 25.9109C37.5532 24.8545 37.5205 23.7253 37.794 22.6512L39.8963 12.7303H44.408L42.334 22.552C42.1073 23.6244 42.1498 24.3944 42.4474 24.8763C42.745 25.3582 43.5104 25.5944 44.7387 25.5944C45.5203 25.5924 46.2934 25.4317 47.011 25.122C47.7111 24.8294 48.3638 24.4346 48.948 23.9504L51.3101 12.7256H55.8217L52.7226 27.4652C52.1746 30.0683 51.192 32.7752 49.2739 34.6933C47.0441 36.9278 43.7986 37.2822 40.7845 37.2822Z" fill="#CEDBEE"/>
<path d="M67.0841 28.9014C65.1457 28.9721 63.2242 28.5167 61.5237 27.5834C60.0692 26.7355 58.9664 25.3948 58.4152 23.804C57.8262 22.1694 57.7758 20.2372 58.264 18.0073C59.0199 14.4453 60.4907 11.6721 62.6764 9.68796C64.8622 7.70378 67.9062 6.71326 71.8084 6.71641C72.9564 6.70398 74.1031 6.79887 75.2334 6.99987C76.1751 7.17646 77.0986 7.43897 77.9924 7.78409L77.1468 11.7383C75.3024 10.9373 73.3087 10.5379 71.2982 10.5667C68.8479 10.5667 66.9582 11.1792 65.6291 12.4044C64.3 13.6295 63.3677 15.4972 62.8323 18.0073C62.3158 20.3694 62.4386 22.141 63.2008 23.3221C63.963 24.5032 65.6558 25.0937 68.2794 25.0937C69.3376 25.0924 70.3936 24.9975 71.4352 24.8102C72.4993 24.6179 73.5442 24.3317 74.5579 23.9551L73.7217 27.9329C72.7076 28.2309 71.6756 28.4644 70.632 28.6321C69.4588 28.8187 68.2721 28.9088 67.0841 28.9014Z" fill="#CEDBEE"/>
<path d="M84.5641 28.901C81.7295 28.901 79.7469 28.1829 78.6163 26.7468C77.4856 25.3106 77.1958 23.2776 77.747 20.6478C78.3045 18.0211 79.3958 15.9881 81.0209 14.5488C82.646 13.1095 84.9956 12.3914 88.0695 12.3945C90.9481 12.3945 92.9527 13.1126 94.0834 14.5488C95.2141 15.985 95.5054 18.018 94.9574 20.6478C94.3999 23.2745 93.3197 25.3074 91.7166 26.7468C90.1135 28.1861 87.7293 28.9042 84.5641 28.901ZM85.4003 25.0602C86.8459 25.0602 87.9482 24.7311 88.7072 24.0728C89.4663 23.4146 90.0221 22.2729 90.3749 20.6478C90.7087 19.0226 90.6646 17.881 90.2426 17.2227C89.8206 16.5645 88.8301 16.2369 87.2711 16.2401C85.8443 16.2401 84.742 16.5676 83.9641 17.2227C83.194 17.8794 82.646 19.0226 82.3106 20.6478C81.9752 22.2729 81.9894 23.4162 82.4098 24.0728C82.8303 24.7295 83.8413 25.0602 85.4003 25.0602Z" fill="#CEDBEE"/>
<path d="M96.4595 28.5655L99.7995 12.7299H103.976L103.806 14.2653C104.678 13.6982 105.615 13.2382 106.598 12.8953C107.571 12.5621 108.593 12.3928 109.621 12.3945C110.481 12.3403 111.339 12.513 112.111 12.8953C112.644 13.2163 113.041 13.72 113.231 14.3125C114.1 13.719 115.043 13.2425 116.037 12.8953C117.163 12.5349 118.341 12.3656 119.523 12.3945C121.221 12.3945 122.435 12.8669 123.166 13.8118C123.896 14.7566 124.063 16.1991 123.666 18.1392L121.465 28.5608H117.019L119.126 18.6399C119.348 17.5911 119.306 16.84 119.008 16.3817C118.711 15.9235 118.011 15.6967 116.92 15.6967C115.571 15.6969 114.272 16.2025 113.278 17.114C113.292 17.5729 113.248 18.0318 113.145 18.4793L111.02 28.5655H106.815L108.917 18.6446C109.13 17.9221 109.114 17.1512 108.87 16.4384C108.634 15.9471 108.039 15.7015 107.084 15.7015C106.389 15.7094 105.706 15.8878 105.095 16.2211C104.444 16.5633 103.823 16.96 103.239 17.4069L100.9 28.5655H96.4595Z" fill="#CEDBEE"/>
<path d="M132.774 28.901C131.26 28.9427 129.756 28.6339 128.381 27.9986C127.205 27.4385 126.286 26.4522 125.811 25.2397C125.307 24.0082 125.245 22.4666 125.627 20.6147C125.925 19.0708 126.489 17.5905 127.294 16.24C128.05 15.0207 129.134 14.0385 130.422 13.4055C131.986 12.688 133.695 12.3451 135.415 12.4039C137.862 12.4039 139.606 13.0449 140.645 14.3267C141.684 15.6085 141.979 17.2841 141.528 19.3533L140.928 22.2256H129.467C129.445 23.4854 129.785 24.3547 130.488 24.8334C131.187 25.3058 132.51 25.5373 134.447 25.5373C135.33 25.5331 136.212 25.4541 137.083 25.3011C137.887 25.1723 138.677 24.9715 139.445 24.7011L138.774 27.9089C137.901 28.261 136.989 28.5099 136.058 28.6506C134.972 28.8217 133.874 28.9054 132.774 28.901ZM130.067 19.4525H137.588L137.754 18.588C137.868 18.2266 137.897 17.8437 137.839 17.4691C137.781 17.0946 137.637 16.7386 137.418 16.429C136.998 15.9093 136.147 15.6448 134.881 15.6448C133.388 15.6448 132.283 15.9471 131.574 16.5471C130.77 17.3221 130.24 18.3392 130.067 19.443V19.4525Z" fill="#CEDBEE"/>
<path d="M150.916 28.9014C149.401 28.9432 147.897 28.6344 146.522 27.9991C145.346 27.4389 144.427 26.4526 143.952 25.2401C143.451 24.0087 143.39 22.467 143.768 20.6151C144.066 19.0712 144.63 17.5909 145.435 16.2404C146.192 15.0211 147.275 14.0389 148.563 13.4059C150.12 12.6881 151.823 12.342 153.537 12.3949C155.991 12.3949 157.734 13.0358 158.767 14.3177C159.8 15.5995 160.104 17.2751 159.679 19.3443L159.079 22.2166H147.609C147.587 23.4764 147.927 24.3457 148.629 24.8244C149.328 25.2968 150.651 25.5283 152.588 25.5283C153.473 25.5239 154.357 25.4449 155.229 25.2921C156.032 25.163 156.823 24.9623 157.591 24.6921L156.92 27.8999C156.04 28.2576 155.12 28.5097 154.18 28.651C153.1 28.8211 152.009 28.9048 150.916 28.9014ZM148.213 19.4529H155.729L155.895 18.5884C156.01 18.2272 156.04 17.844 155.982 17.4693C155.924 17.0946 155.779 16.7385 155.559 16.4294C155.139 15.9098 154.293 15.6452 153.023 15.6452C151.53 15.6452 150.427 15.946 149.716 16.5475C148.911 17.322 148.383 18.3395 148.213 19.4435V19.4529Z" fill="#CEDBEE"/>
<path d="M167.087 28.901C165.329 28.901 164.093 28.4286 163.378 27.4837C162.665 26.5389 162.49 25.2208 162.844 23.5721L164.403 16.2023H162.164L162.896 12.7299H165.136L165.873 9.32377L170.649 7.98682L169.647 12.7111H173.658L172.652 16.1834H168.91L167.408 23.2366C167.228 24.1059 167.28 24.7012 167.559 25.0224C167.838 25.3437 168.457 25.4948 169.411 25.4948C170.093 25.4812 170.769 25.3682 171.419 25.1594L170.748 28.268C169.575 28.6949 168.335 28.9093 167.087 28.901Z" fill="#CEDBEE"/>
</svg>
